<?xml version="1.0" standalone="no"?><!DOCTYPE svg PUBLIC "-//W3C//DTD SVG 1.1//EN" "http://www.w3.org/Graphics/SVG/1.1/DTD/svg11.dtd"><svg t="1785920963473" class="icon" viewBox="0 0 1024 1024" version="1.1" xmlns="http://www.w3.org/2000/svg" p-id="30993" xmlns:xlink="http://www.w3.org/1999/xlink" width="200" height="200"><path d="M255.4 259.1v-61c0-17.5 14.4-31.7 32.1-31.7h477.1c17.7 0 32.1 14.2 32.1 31.7v61h108.2c31 0 56.1 24.9 56.1 55.5v487.5c0 30.7-25.1 55.5-56.1 55.5H119.1c-31 0-56-24.8-56.1-55.5V314.6c0-30.7 25.1-55.5 56.1-55.5h136.3zM832.8 426c24.4 0 44.1-19.1 44.1-42.7-0.1-11.5-4.9-22.4-13.1-30.4-8.3-8-19.5-12.4-31-12.3-24.4 0-44.1 19.1-44.1 42.7-0.1 23.6 19.7 42.7 44.1 42.7zM512 694.9c-77.4 0-140.3-61-140.3-136.5s63-136.5 140.3-136.5c77.4 0 140.3 61 140.3 136.5S589.4 694.8 512 694.9z m0 81.1c124 0 224.5-97.4 224.5-217.7 0-120.2-100.5-217.6-224.5-217.6s-224.5 97.5-224.5 217.7C287.5 678.6 388 776.1 512 776z m0 0" p-id="30994"></path></svg>